<?xml version="1.0" standalone="no"?>
<!DOCTYPE svg PUBLIC "-//W3C//DTD SVG 20010904//EN"
 "http://www.w3.org/TR/2001/REC-SVG-20010904/DTD/svg10.dtd">
<svg version="1.0" xmlns="http://www.w3.org/2000/svg"
 width="2003.000000pt" height="2048.000000pt" viewBox="0 0 2003.000000 2048.000000"
 preserveAspectRatio="xMidYMid meet">

<g transform="translate(0.000000,2048.000000) scale(0.100000,-0.100000)"
fill="#000000" stroke="none">
<path d="M9865 20063 c-109 -104 -629 -608 -830 -805 -99 -97 -191 -186 -205
-198 -14 -12 -110 -105 -215 -208 -104 -102 -251 -245 -325 -317 -179 -172
-438 -424 -690 -670 -113 -110 -331 -321 -485 -470 -153 -148 -297 -288 -319
-310 l-41 -40 -1765 0 -1765 0 -3 -1770 -2 -1770 -26 -30 c-14 -16 -114 -120
-222 -230 -108 -110 -313 -319 -456 -465 -438 -447 -653 -667 -1121 -1145
-572 -584 -859 -877 -1110 -1133 -110 -112 -200 -209 -200 -217 0 -7 72 -87
160 -177 286 -293 938 -959 1020 -1043 44 -45 154 -158 245 -251 91 -93 381
-389 645 -659 468 -478 642 -655 939 -959 l146 -149 0 -1769 0 -1768 1783 0
1782 0 35 -31 c41 -36 157 -147 366 -348 83 -80 186 -180 230 -221 43 -41 187
-179 319 -305 132 -127 292 -279 355 -340 63 -60 164 -157 225 -216 60 -58
164 -157 230 -220 65 -62 173 -166 238 -229 66 -63 125 -119 131 -125 6 -5 65
-62 131 -125 66 -63 224 -214 350 -335 401 -383 447 -428 561 -538 61 -59 120
-114 131 -122 18 -13 39 5 314 283 162 163 434 439 604 612 549 559 1651 1677
1945 1973 l285 287 1743 0 1742 0 0 1766 0 1766 183 186 c100 103 260 267 356
364 96 98 177 182 180 187 3 5 172 179 376 387 392 402 580 595 690 709 37 39
144 149 238 245 94 96 237 243 317 325 80 83 255 263 390 401 430 439 500 513
500 527 0 8 -51 63 -112 122 -62 60 -315 307 -563 549 -247 242 -524 513 -614
601 -90 88 -203 198 -251 245 -159 156 -804 786 -865 845 -33 32 -237 231
-452 443 l-393 386 0 1763 0 1763 -1773 0 c-1503 0 -1776 2 -1793 14 -11 8
-40 33 -64 57 -56 52 -177 167 -295 278 -49 47 -144 137 -210 201 -66 63 -152
144 -190 180 -39 36 -158 148 -265 250 -107 102 -235 223 -284 270 -50 47
-145 137 -211 201 -66 63 -156 149 -200 190 -44 41 -87 81 -96 89 -21 19 -167
158 -294 280 -55 52 -143 135 -195 184 -52 49 -147 139 -210 200 -64 61 -154
147 -200 190 -47 44 -130 122 -185 175 -55 53 -144 138 -197 189 -54 50 -103
92 -110 92 -7 0 -44 -30 -83 -67z m244 -2920 c75 -70 181 -171 236 -223 55
-53 147 -141 205 -196 231 -219 300 -284 410 -390 63 -60 149 -141 190 -180
41 -38 119 -112 175 -165 55 -52 143 -136 195 -185 88 -83 148 -141 410 -390
58 -56 139 -132 180 -171 41 -39 109 -102 150 -141 l75 -71 1140 -1 c627 0
1150 -3 1163 -6 l22 -6 0 -1163 0 -1163 473 -463 c259 -255 562 -551 672 -659
110 -108 310 -304 445 -436 454 -445 675 -661 743 -727 51 -48 67 -69 60 -80
-4 -8 -152 -162 -328 -342 -176 -180 -322 -331 -325 -335 -3 -4 -171 -178
-375 -385 -203 -208 -372 -381 -375 -385 -3 -4 -147 -153 -321 -331 -551 -564
-634 -651 -646 -673 -9 -16 -12 -285 -13 -1158 l0 -1138 -1140 -2 -1140 -3
-213 -215 c-117 -118 -503 -510 -858 -870 -355 -360 -779 -790 -942 -955
l-296 -300 -118 115 c-65 63 -170 164 -233 224 -63 60 -174 166 -245 235 -72
69 -178 171 -236 226 -57 55 -205 197 -328 315 -123 118 -227 217 -231 220 -5
3 -107 100 -227 216 -120 116 -261 251 -312 300 -52 49 -158 150 -235 225
-192 186 -265 253 -285 261 -9 4 -537 7 -1173 7 l-1158 1 0 1158 0 1157 -581
595 c-320 327 -688 703 -817 835 -244 249 -516 526 -781 797 -114 117 -151
161 -144 172 4 8 181 191 393 408 212 216 473 483 580 592 107 110 310 317
451 460 555 566 704 719 714 731 6 6 46 48 90 93 l79 82 1 1147 c0 632 4 1154
8 1161 7 10 244 12 1148 12 627 0 1146 3 1154 7 7 5 133 125 280 268 147 143
293 284 324 314 31 29 133 128 226 220 324 315 560 545 675 655 158 151 438
424 661 643 102 101 191 183 198 183 8 0 75 -57 150 -127z"/>
</g>
</svg>
